<svg width="791" height="99" viewBox="0 0 791 99" fill="none" xmlns="http://www.w3.org/2000/svg">
<path d="M4.9209 69.6469L91.761 72.6167L178.601 43.2894L265.441 23.9854L352.281 95.6331L439.122 59.4999L525.962 6.41379L612.802 15.1996L699.642 31.7813L786.482 3.32019" stroke="#F8503C"/>
<path d="M4.92088 71.9672C7.08632 71.9672 8.84175 70.9284 8.84175 69.647C8.84175 68.3656 7.08632 67.3268 4.92088 67.3268C2.75544 67.3268 1 68.3656 1 69.647C1 70.9284 2.75544 71.9672 4.92088 71.9672Z" fill="white" stroke="#F8503C"/>
<path d="M91.761 74.9371C93.9264 74.9371 95.6819 73.8984 95.6819 72.6169C95.6819 71.3355 93.9264 70.2968 91.761 70.2968C89.5956 70.2968 87.8401 71.3355 87.8401 72.6169C87.8401 73.8984 89.5956 74.9371 91.761 74.9371Z" fill="white" stroke="#F8503C"/>
<path d="M178.601 45.6098C180.767 45.6098 182.522 44.571 182.522 43.2896C182.522 42.0081 180.767 40.9694 178.601 40.9694C176.436 40.9694 174.68 42.0081 174.68 43.2896C174.68 44.571 176.436 45.6098 178.601 45.6098Z" fill="white" stroke="#F8503C"/>
<path d="M265.441 26.3058C267.607 26.3058 269.362 25.267 269.362 23.9856C269.362 22.7042 267.607 21.6654 265.441 21.6654C263.276 21.6654 261.52 22.7042 261.52 23.9856C261.52 25.267 263.276 26.3058 265.441 26.3058Z" fill="white" stroke="#F8503C"/>
<path d="M352.281 97.9534C354.447 97.9534 356.202 96.9146 356.202 95.6332C356.202 94.3518 354.447 93.313 352.281 93.313C350.116 93.313 348.361 94.3518 348.361 95.6332C348.361 96.9146 350.116 97.9534 352.281 97.9534Z" fill="white" stroke="#F8503C"/>
<path d="M439.122 61.8203C441.287 61.8203 443.042 60.7815 443.042 59.5001C443.042 58.2187 441.287 57.1799 439.122 57.1799C436.956 57.1799 435.201 58.2187 435.201 59.5001C435.201 60.7815 436.956 61.8203 439.122 61.8203Z" fill="white" stroke="#F8503C"/>
<path d="M525.962 8.73414C528.127 8.73414 529.882 7.69536 529.882 6.41395C529.882 5.13254 528.127 4.09375 525.962 4.09375C523.796 4.09375 522.041 5.13254 522.041 6.41395C522.041 7.69536 523.796 8.73414 525.962 8.73414Z" fill="white" stroke="#F8503C"/>
<path d="M612.802 17.5199C614.967 17.5199 616.723 16.4811 616.723 15.1997C616.723 13.9183 614.967 12.8795 612.802 12.8795C610.636 12.8795 608.881 13.9183 608.881 15.1997C608.881 16.4811 610.636 17.5199 612.802 17.5199Z" fill="white" stroke="#F8503C"/>
<path d="M699.642 34.1016C701.807 34.1016 703.563 33.0628 703.563 31.7814C703.563 30.5 701.807 29.4612 699.642 29.4612C697.476 29.4612 695.721 30.5 695.721 31.7814C695.721 33.0628 697.476 34.1016 699.642 34.1016Z" fill="white" stroke="#F8503C"/>
<path d="M786.482 5.64039C788.647 5.64039 790.403 4.60161 790.403 3.3202C790.403 2.03879 788.647 1 786.482 1C784.317 1 782.561 2.03879 782.561 3.3202C782.561 4.60161 784.317 5.64039 786.482 5.64039Z" fill="white" stroke="#F8503C"/>
</svg>
