<svg width="791" height="113" viewBox="0 0 791 113" fill="none" xmlns="http://www.w3.org/2000/svg">
<path d="M4.9209 81.5263L91.761 48.8579L178.601 3.56768L265.441 69.8944L352.281 19.9019L439.122 51.3328L525.962 3.32019L612.802 99.5929L699.642 109.492L786.482 69.8944" stroke="#BC1E76"/>
<path d="M4.92088 83.8467C7.08632 83.8467 8.84175 82.8079 8.84175 81.5265C8.84175 80.2451 7.08632 79.2063 4.92088 79.2063C2.75544 79.2063 1 80.2451 1 81.5265C1 82.8079 2.75544 83.8467 4.92088 83.8467Z" fill="white" stroke="#BC1E76"/>
<path d="M91.761 51.1784C93.9264 51.1784 95.6819 50.1396 95.6819 48.8582C95.6819 47.5768 93.9264 46.538 91.761 46.538C89.5956 46.538 87.8401 47.5768 87.8401 48.8582C87.8401 50.1396 89.5956 51.1784 91.761 51.1784Z" fill="white" stroke="#BC1E76"/>
<path d="M178.601 5.88795C180.767 5.88795 182.522 4.84916 182.522 3.56776C182.522 2.28635 180.767 1.24756 178.601 1.24756C176.436 1.24756 174.68 2.28635 174.68 3.56776C174.68 4.84916 176.436 5.88795 178.601 5.88795Z" fill="white" stroke="#BC1E76"/>
<path d="M265.441 72.2146C267.607 72.2146 269.362 71.1758 269.362 69.8944C269.362 68.613 267.607 67.5742 265.441 67.5742C263.276 67.5742 261.52 68.613 261.52 69.8944C261.52 71.1758 263.276 72.2146 265.441 72.2146Z" fill="white" stroke="#BC1E76"/>
<path d="M352.281 22.2222C354.447 22.2222 356.202 21.1834 356.202 19.902C356.202 18.6206 354.447 17.5818 352.281 17.5818C350.116 17.5818 348.361 18.6206 348.361 19.902C348.361 21.1834 350.116 22.2222 352.281 22.2222Z" fill="white" stroke="#BC1E76"/>
<path d="M439.122 53.6532C441.287 53.6532 443.042 52.6144 443.042 51.333C443.042 50.0516 441.287 49.0128 439.122 49.0128C436.956 49.0128 435.201 50.0516 435.201 51.333C435.201 52.6144 436.956 53.6532 439.122 53.6532Z" fill="white" stroke="#BC1E76"/>
<path d="M525.962 5.64039C528.127 5.64039 529.882 4.60161 529.882 3.3202C529.882 2.03879 528.127 1 525.962 1C523.796 1 522.041 2.03879 522.041 3.3202C522.041 4.60161 523.796 5.64039 525.962 5.64039Z" fill="white" stroke="#BC1E76"/>
<path d="M612.802 101.913C614.967 101.913 616.723 100.874 616.723 99.5929C616.723 98.3115 614.967 97.2727 612.802 97.2727C610.636 97.2727 608.881 98.3115 608.881 99.5929C608.881 100.874 610.636 101.913 612.802 101.913Z" fill="white" stroke="#BC1E76"/>
<path d="M699.642 111.813C701.807 111.813 703.563 110.774 703.563 109.493C703.563 108.211 701.807 107.172 699.642 107.172C697.476 107.172 695.721 108.211 695.721 109.493C695.721 110.774 697.476 111.813 699.642 111.813Z" fill="white" stroke="#BC1E76"/>
<path d="M786.482 72.2146C788.647 72.2146 790.403 71.1758 790.403 69.8944C790.403 68.613 788.647 67.5742 786.482 67.5742C784.317 67.5742 782.561 68.613 782.561 69.8944C782.561 71.1758 784.317 72.2146 786.482 72.2146Z" fill="white" stroke="#BC1E76"/>
</svg>
